<svg width="40" height="40" viewBox="0 0 40 40" fill="none" xmlns="http://www.w3.org/2000/svg">
<path d="M20 37.5781C29.7081 37.5781 37.5781 29.7081 37.5781 20C37.5781 10.2919 29.7081 2.42188 20 2.42188C10.2919 2.42188 2.42188 10.2919 2.42188 20C2.42188 29.7081 10.2919 37.5781 20 37.5781Z" fill="#4AAEE8"/>
<path d="M20.5904 28.3259C20.3971 28.1308 19.7163 26.9425 19.0775 25.6852C18.4387 24.428 17.7867 23.2144 17.6285 22.9884C17.4482 22.7308 16.4285 22.1183 14.8951 21.3465C12.1365 19.9582 11.7659 19.6603 11.8405 18.8917C11.9087 18.1895 12.1883 18.0442 16.0715 16.6933C17.8476 16.0754 20.7124 15.079 22.4378 14.4791C24.1631 13.8792 25.766 13.3884 25.9999 13.3884C26.4881 13.3884 26.9469 13.82 26.9469 14.2794C26.9469 14.4523 26.3714 16.2558 25.668 18.2871C24.9646 20.3184 24.1573 22.6544 23.8739 23.4781C22.9161 26.2625 22.1836 28.1275 21.939 28.4047C21.6036 28.7848 21.0107 28.7502 20.5904 28.3259Z" fill="white"/>
</svg>
