<svg width="304" height="55" viewBox="0 0 304 55" fill="none" xmlns="http://www.w3.org/2000/svg">
<path d="M141.41 50.8802L142.32 49.9702C142.469 50.1569 142.628 50.3109 142.796 50.4322C143.225 50.7309 143.65 50.8802 144.07 50.8802C144.443 50.8802 144.733 50.8009 144.938 50.6422C145.153 50.4742 145.26 50.2735 145.26 50.0402C145.26 49.8349 145.134 49.6669 144.882 49.5362C144.639 49.4055 144.345 49.2935 144 49.2002C143.655 49.1069 143.305 48.9949 142.95 48.8642C142.605 48.7242 142.306 48.5049 142.054 48.2062C141.811 47.9075 141.69 47.5389 141.69 47.1002C141.69 46.5589 141.914 46.0969 142.362 45.7142C142.81 45.3315 143.403 45.1402 144.14 45.1402C144.793 45.1402 145.391 45.2942 145.932 45.6022C146.165 45.7235 146.361 45.8729 146.52 46.0502L145.61 46.9602C145.479 46.8389 145.349 46.7455 145.218 46.6802C144.891 46.4935 144.532 46.4002 144.14 46.4002C143.804 46.4002 143.543 46.4702 143.356 46.6102C143.179 46.7502 143.09 46.9135 143.09 47.1002C143.09 47.3055 143.211 47.4735 143.454 47.6042C143.706 47.7349 144.005 47.8515 144.35 47.9542C144.695 48.0475 145.041 48.1642 145.386 48.3042C145.741 48.4349 146.039 48.6495 146.282 48.9482C146.534 49.2375 146.66 49.6015 146.66 50.0402C146.66 50.6282 146.422 51.1275 145.946 51.5382C145.479 51.9395 144.854 52.1402 144.07 52.1402C143.333 52.1402 142.67 51.9302 142.082 51.5102C141.811 51.3329 141.587 51.1229 141.41 50.8802Z" fill="black"/>
<path d="M148.334 52.0002V45.2802H149.734V52.0002H148.334ZM148.446 43.7822C148.278 43.6235 148.194 43.4229 148.194 43.1802C148.194 42.9375 148.278 42.7369 148.446 42.5782C148.614 42.4195 148.81 42.3402 149.034 42.3402C149.258 42.3402 149.454 42.4195 149.622 42.5782C149.79 42.7369 149.874 42.9375 149.874 43.1802C149.874 43.4229 149.79 43.6235 149.622 43.7822C149.454 43.9409 149.258 44.0202 149.034 44.0202C148.81 44.0202 148.614 43.9409 148.446 43.7822Z" fill="black"/>
<path d="M151.694 53.5402L152.674 52.6302C152.842 52.8262 153.01 52.9895 153.178 53.1202C153.57 53.4469 154.032 53.6102 154.564 53.6102C155.208 53.6102 155.717 53.4142 156.09 53.0222C156.473 52.6395 156.664 52.1122 156.664 51.4402V50.8102C156.524 51.0062 156.347 51.1835 156.132 51.3422C155.637 51.6875 155.091 51.8602 154.494 51.8602C153.673 51.8602 152.963 51.5429 152.366 50.9082C151.778 50.2642 151.484 49.4615 151.484 48.5002C151.484 47.5389 151.778 46.7409 152.366 46.1062C152.963 45.4622 153.673 45.1402 154.494 45.1402C155.082 45.1402 155.628 45.3175 156.132 45.6722C156.337 45.8215 156.515 45.9942 156.664 46.1902V45.2802H158.064V51.4402C158.064 52.4575 157.733 53.2929 157.07 53.9462C156.417 54.6089 155.581 54.9402 154.564 54.9402C153.789 54.9402 153.075 54.7069 152.422 54.2402C152.133 54.0255 151.89 53.7922 151.694 53.5402ZM153.43 49.9562C153.794 50.3389 154.242 50.5302 154.774 50.5302C155.306 50.5302 155.754 50.3389 156.118 49.9562C156.482 49.5735 156.664 49.0882 156.664 48.5002C156.664 47.9122 156.482 47.4269 156.118 47.0442C155.754 46.6615 155.306 46.4702 154.774 46.4702C154.242 46.4702 153.794 46.6615 153.43 47.0442C153.066 47.4269 152.884 47.9122 152.884 48.5002C152.884 49.0882 153.066 49.5735 153.43 49.9562Z" fill="black"/>
<path d="M160.165 52.0002V45.2802H161.565V46.2602C161.705 46.0549 161.878 45.8682 162.083 45.7002C162.55 45.3269 163.077 45.1402 163.665 45.1402C164.449 45.1402 165.089 45.4062 165.583 45.9382C166.078 46.4609 166.325 47.1749 166.325 48.0802V52.0002H164.925V48.0802C164.925 47.5855 164.781 47.1935 164.491 46.9042C164.211 46.6149 163.843 46.4702 163.385 46.4702C162.853 46.4702 162.415 46.6475 162.069 47.0022C161.733 47.3475 161.565 47.8002 161.565 48.3602V52.0002H160.165Z" fill="black"/>
<path d="M172.346 52.0002V51.0202C172.216 51.2162 172.038 51.4029 171.814 51.5802C171.31 51.9535 170.764 52.1402 170.176 52.1402C169.523 52.1402 168.986 51.9489 168.566 51.5662C168.146 51.1835 167.936 50.7215 167.936 50.1802C167.936 49.6295 168.109 49.1675 168.454 48.7942C168.809 48.4209 169.29 48.1829 169.896 48.0802L172.346 47.6602C172.346 47.2962 172.216 46.9975 171.954 46.7642C171.693 46.5215 171.357 46.4002 170.946 46.4002C170.536 46.4002 170.111 46.5542 169.672 46.8622C169.514 46.9742 169.355 47.1235 169.196 47.3102L168.286 46.4002C168.473 46.1575 168.697 45.9475 168.958 45.7702C169.546 45.3502 170.209 45.1402 170.946 45.1402C171.777 45.1402 172.449 45.3875 172.962 45.8822C173.485 46.3675 173.746 46.9835 173.746 47.7302V52.0002H172.346ZM172.346 48.9902V48.7802L170.386 49.1302C169.686 49.2515 169.336 49.5549 169.336 50.0402C169.336 50.2922 169.434 50.5069 169.63 50.6842C169.836 50.8615 170.111 50.9502 170.456 50.9502C170.988 50.9502 171.436 50.7635 171.8 50.3902C172.164 50.0169 172.346 49.5502 172.346 48.9902Z" fill="black"/>
<path d="M175.91 52.0002V42.2002H177.31V52.0002H175.91Z" fill="black"/>
<path d="M179.55 52.0002V42.2002H180.95V52.0002H179.55Z" fill="black"/>
<path d="M46.7939 27.661C46.7939 20.1212 51.0754 16 61.07 16C71.0376 16 75.3461 20.1618 75.3461 27.661C75.3461 35.1873 71.0241 39.3761 61.07 39.3761C51.0754 39.3761 46.7939 35.2144 46.7939 27.661ZM69.5114 27.661C69.5114 23.0534 67.1748 20.9049 61.07 20.9049C54.9652 20.9049 52.6286 23.0128 52.6286 27.661C52.6286 32.3363 54.9922 34.4847 61.07 34.4847C67.1478 34.4847 69.5114 32.2957 69.5114 27.661Z" fill="black"/>
<path d="M104.979 27.688C104.979 35.417 99.8196 39.0518 93.9444 39.0518H77.4668V16.3242H93.9579C99.8196 16.3242 104.979 19.959 104.979 27.688ZM99.1443 27.688C99.1443 22.175 96.1594 21.2291 91.7429 21.2291H83.3015V34.1468H91.7429C96.1594 34.1468 99.1443 33.201 99.1443 27.688Z" fill="black"/>
<path d="M112.934 20.9724V25.5801H131.113V29.7959H112.934V34.4036H131.113V39.0518H107.086V16.3242H131.1V20.9724H112.934Z" fill="black"/>
<path d="M145.282 27.688L132.505 16.3242H140.555L149.253 24.1208L157.924 16.3242H166L153.21 27.688L166 39.0518H157.924L149.253 31.2552L140.555 39.0518H132.505L145.282 27.688Z" fill="black"/>
<path d="M38.4608 38.0114C36.3133 38.9167 33.6256 39.3761 30.2761 39.3761C20.2815 39.3761 16 35.2144 16 27.661C16 20.1212 20.2815 16 30.2761 16C40.2436 16 44.5521 20.1618 44.5521 27.661C44.5521 30.2554 44.0389 32.4714 42.9314 34.255C42.9314 34.255 42.8503 34.3901 42.7153 34.5252C41.9454 35.2954 38.6769 38.3357 38.6769 38.0789C38.6769 37.7952 38.4608 38.0114 38.4608 38.0114ZM30.2761 34.4712C36.3403 34.4712 38.7174 32.2957 38.7174 27.6475C38.7174 23.0399 36.3809 20.8914 30.2761 20.8914C24.1713 20.8914 21.8347 22.9993 21.8347 27.6475C21.8347 32.3363 24.2118 34.4712 30.2761 34.4712Z" fill="black"/>
<path d="M47.0103 38.8074H39.1902L28.5879 27.6328H36.408L47.0103 38.8074Z" fill="#D0FF26"/>
<rect x="192" y="14.5" width="2" height="26" rx="1" fill="#E9F12B"/>
<rect x="192" y="14.5" width="2" height="26" rx="1" fill="#C6C6C6"/>
<path d="M218.32 23.888C217.42 24.788 216.97 25.892 216.97 27.2C216.97 28.508 217.42 29.618 218.32 30.53C219.232 31.43 220.342 31.88 221.65 31.88C222.958 31.88 224.062 31.43 224.962 30.53C225.874 29.618 226.33 28.508 226.33 27.2C226.33 25.892 225.874 24.788 224.962 23.888C224.062 22.976 222.958 22.52 221.65 22.52C220.342 22.52 219.232 22.976 218.32 23.888ZM216.898 31.808C215.626 30.548 214.99 29.012 214.99 27.2C214.99 25.388 215.626 23.858 216.898 22.61C218.182 21.35 219.766 20.72 221.65 20.72C223.534 20.72 225.112 21.35 226.384 22.61C227.668 23.858 228.31 25.388 228.31 27.2C228.31 29.012 227.668 30.548 226.384 31.808C225.112 33.056 223.534 33.68 221.65 33.68C219.766 33.68 218.182 33.056 216.898 31.808ZM234.692 33.5V24.86H242.522V33.5H240.722V26.57H236.492V33.5H234.692ZM245.226 37.28V24.86H247.026V26.12C247.194 25.856 247.428 25.616 247.728 25.4C248.376 24.92 249.132 24.68 249.996 24.68C251.1 24.68 252.048 25.112 252.84 25.976C253.644 26.828 254.046 27.896 254.046 29.18C254.046 30.464 253.644 31.538 252.84 32.402C252.048 33.254 251.1 33.68 249.996 33.68C249.132 33.68 248.376 33.44 247.728 32.96C247.428 32.732 247.194 32.492 247.026 32.24V37.28H245.226ZM247.782 31.178C248.286 31.706 248.904 31.97 249.636 31.97C250.368 31.97 250.986 31.706 251.49 31.178C251.994 30.65 252.246 29.984 252.246 29.18C252.246 28.376 251.994 27.71 251.49 27.182C250.986 26.654 250.368 26.39 249.636 26.39C248.904 26.39 248.286 26.654 247.782 27.182C247.278 27.71 247.026 28.376 247.026 29.18C247.026 29.984 247.278 30.65 247.782 31.178ZM256.955 32.384C256.091 31.508 255.659 30.44 255.659 29.18C255.659 27.92 256.091 26.858 256.955 25.994C257.831 25.118 258.899 24.68 260.159 24.68C261.419 24.68 262.481 25.118 263.345 25.994C264.221 26.858 264.659 27.92 264.659 29.18C264.659 30.44 264.221 31.508 263.345 32.384C262.481 33.248 261.419 33.68 260.159 33.68C258.899 33.68 257.831 33.248 256.955 32.384ZM258.233 31.196C258.749 31.712 259.391 31.97 260.159 31.97C260.927 31.97 261.569 31.712 262.085 31.196C262.601 30.668 262.859 29.996 262.859 29.18C262.859 28.364 262.601 27.698 262.085 27.182C261.569 26.654 260.927 26.39 260.159 26.39C259.391 26.39 258.749 26.654 258.233 27.182C257.717 27.698 257.459 28.364 257.459 29.18C257.459 29.996 257.717 30.668 258.233 31.196ZM273.39 30.8L274.47 32.06C274.242 32.36 273.942 32.63 273.57 32.87C272.754 33.41 271.824 33.68 270.78 33.68C269.52 33.68 268.452 33.248 267.576 32.384C266.712 31.508 266.28 30.44 266.28 29.18C266.28 27.92 266.706 26.858 267.558 25.994C268.422 25.118 269.466 24.68 270.69 24.68C271.914 24.68 272.922 25.082 273.714 25.886C274.518 26.678 274.92 27.686 274.92 28.91C274.92 29.018 274.902 29.234 274.866 29.558L274.83 29.81H268.17C268.278 30.422 268.578 30.938 269.07 31.358C269.562 31.766 270.162 31.97 270.87 31.97C271.518 31.97 272.13 31.778 272.706 31.394C272.97 31.226 273.198 31.028 273.39 30.8ZM268.17 28.28H273.03C272.886 27.668 272.616 27.188 272.22 26.84C271.824 26.48 271.314 26.3 270.69 26.3C269.418 26.3 268.578 26.96 268.17 28.28ZM277.072 33.5V24.86H278.872V28.82L282.562 24.86H284.812L281.482 28.37L285.082 33.5H283.012L280.312 29.63L278.872 31.16V33.5H277.072ZM288.41 33.5V26.57H285.44V24.86H293.18V26.57H290.21V33.5H288.41ZM301.37 30.8L302.45 32.06C302.222 32.36 301.922 32.63 301.55 32.87C300.734 33.41 299.804 33.68 298.76 33.68C297.5 33.68 296.432 33.248 295.556 32.384C294.692 31.508 294.26 30.44 294.26 29.18C294.26 27.92 294.686 26.858 295.538 25.994C296.402 25.118 297.446 24.68 298.67 24.68C299.894 24.68 300.902 25.082 301.694 25.886C302.498 26.678 302.9 27.686 302.9 28.91C302.9 29.018 302.882 29.234 302.846 29.558L302.81 29.81H296.15C296.258 30.422 296.558 30.938 297.05 31.358C297.542 31.766 298.142 31.97 298.85 31.97C299.498 31.97 300.11 31.778 300.686 31.394C300.95 31.226 301.178 31.028 301.37 30.8ZM296.15 28.28H301.01C300.866 27.668 300.596 27.188 300.2 26.84C299.804 26.48 299.294 26.3 298.67 26.3C297.398 26.3 296.558 26.96 296.15 28.28Z" fill="black"/>
</svg>
