<svg width="18" height="18" viewBox="0 0 18 18" fill="none" xmlns="http://www.w3.org/2000/svg">
<path d="M9.29289 4.29289C9.68342 3.90237 10.3166 3.90237 10.7071 4.29289C11.0976 4.68342 11.0976 5.31658 10.7071 5.70711L9.29289 4.29289ZM10.7071 12.2929C11.0976 12.6834 11.0976 13.3166 10.7071 13.7071C10.3166 14.0976 9.68342 14.0976 9.29289 13.7071L10.7071 12.2929ZM5.64645 7.93934L9.29289 4.29289L10.7071 5.70711L7.06066 9.35355L5.64645 7.93934ZM7.06066 8.64645L10.7071 12.2929L9.29289 13.7071L5.64645 10.0607L7.06066 8.64645ZM7.06066 9.35355C7.25592 9.15829 7.25592 8.84171 7.06066 8.64645L5.64645 10.0607C5.06066 9.47487 5.06066 8.52513 5.64645 7.93934L7.06066 9.35355Z" fill="#0C0118"/>
</svg>
