<svg width="42" height="42" viewBox="0 0 42 42" fill="none" xmlns="http://www.w3.org/2000/svg">
<path d="M20.7071 16.2929C20.3166 15.9024 19.6834 15.9024 19.2929 16.2929C18.9024 16.6834 18.9024 17.3166 19.2929 17.7071L20.7071 16.2929ZM19.2929 24.2929C18.9024 24.6834 18.9024 25.3166 19.2929 25.7071C19.6834 26.0976 20.3166 26.0976 20.7071 25.7071L19.2929 24.2929ZM24.3536 19.9393L20.7071 16.2929L19.2929 17.7071L22.9393 21.3536L24.3536 19.9393ZM22.9393 20.6464L19.2929 24.2929L20.7071 25.7071L24.3536 22.0607L22.9393 20.6464ZM22.9393 21.3536C22.7441 21.1583 22.7441 20.8417 22.9393 20.6464L24.3536 22.0607C24.9393 21.4749 24.9393 20.5251 24.3536 19.9393L22.9393 21.3536Z" fill="white"/>
</svg>
