<svg width="9" height="8" viewBox="0 0 9 8" fill="none" xmlns="http://www.w3.org/2000/svg">
<path d="M7.46023 2.03044C7.28919 1.86228 7.08611 1.72888 6.8626 1.63786C6.63908 1.54685 6.3995 1.5 6.15756 1.5C5.91561 1.5 5.67604 1.54685 5.45252 1.63786C5.229 1.72888 5.02592 1.86228 4.85488 2.03044L4.49991 2.37928L4.14494 2.03044C3.79945 1.69092 3.33086 1.50018 2.84226 1.50018C2.35366 1.50018 1.88508 1.69092 1.53959 2.03044C1.1941 2.36997 1 2.83046 1 3.31062C1 3.79078 1.1941 4.25128 1.53959 4.5908L1.89456 4.93964L3.79899 6.81118C4.18806 7.19353 4.81176 7.19353 5.20083 6.81118L7.10526 4.93964L7.46023 4.5908C7.63136 4.42271 7.7671 4.22314 7.85972 4.00348C7.95233 3.78383 8 3.54839 8 3.31062C8 3.07286 7.95233 2.83742 7.85972 2.61776C7.7671 2.3981 7.63136 2.19853 7.46023 2.03044Z" stroke="black" stroke-opacity="0.6" stroke-width="1.2" stroke-linecap="round" stroke-linejoin="round"/>
</svg>
